<?xml version="1.0" encoding="utf-8"?>
<!-- Generator: Adobe Illustrator 17.1.0, SVG Export Plug-In . SVG Version: 6.00 Build 0)  -->
<!DOCTYPE svg PUBLIC "-//W3C//DTD SVG 1.1//EN" "http://www.w3.org/Graphics/SVG/1.1/DTD/svg11.dtd">
<svg version="1.1" id="Layer_1" xmlns="http://www.w3.org/2000/svg" xmlns:xlink="http://www.w3.org/1999/xlink" x="0px" y="0px"
	 viewBox="0 0 31.565 31.565" enable-background="new 0 0 31.565 31.565" xml:space="preserve">
<g>
	<path fill="#617DB5" d="M25.26,31.565H6.304C2.823,31.565,0,28.742,0,25.26V6.304C0,2.823,2.823,0,6.304,0H25.26
		c3.482,0,6.304,2.823,6.304,6.304V25.26C31.565,28.742,28.742,31.565,25.26,31.565z"/>
	<path fill="#FFFFFF" d="M26.162,4.506v3.99h-2.162c0,0-1.607-0.111-1.607,3.048h3.769v4.165h-3.769v12.628h-5.376V15.71h-3.492
		v-4.165h3.492V8.968c0,0,0.333-4.462,4.434-4.462S26.162,4.506,26.162,4.506z"/>
</g>
</svg>
