<?xml version="1.0" encoding="utf-8"?>
<!-- Generator: Adobe Illustrator 17.1.0, SVG Export Plug-In . SVG Version: 6.00 Build 0)  -->
<!DOCTYPE svg PUBLIC "-//W3C//DTD SVG 1.1//EN" "http://www.w3.org/Graphics/SVG/1.1/DTD/svg11.dtd">
<svg version="1.1" id="Layer_1" xmlns="http://www.w3.org/2000/svg" xmlns:xlink="http://www.w3.org/1999/xlink" x="0px" y="0px"
	 viewBox="0 0 32.565 32.565" enable-background="new 0 0 32.565 32.565" xml:space="preserve">
<path fill="#FFFFFF" stroke="#006666" stroke-miterlimit="10" d="M25.76,32.065H6.804c-3.482,0-6.304-2.823-6.304-6.304V6.804
	C0.5,3.323,3.323,0.5,6.804,0.5H25.76c3.482,0,6.304,2.823,6.304,6.304V25.76C32.065,29.242,29.242,32.065,25.76,32.065z"/>
<path fill="#006666" d="M26.662,5.006v3.99h-2.162c0,0-1.607-0.111-1.607,3.048h3.769v4.165h-3.769v12.628h-5.376V16.21h-3.492
	v-4.165h3.492V9.468c0,0,0.333-4.462,4.434-4.462S26.662,5.006,26.662,5.006z"/>
</svg>
