<?xml version="1.0" encoding="utf-8"?>
<!-- Generator: Adobe Illustrator 17.1.0, SVG Export Plug-In . SVG Version: 6.00 Build 0)  -->
<!DOCTYPE svg PUBLIC "-//W3C//DTD SVG 1.1//EN" "http://www.w3.org/Graphics/SVG/1.1/DTD/svg11.dtd">
<svg version="1.1" id="Layer_1" xmlns="http://www.w3.org/2000/svg" xmlns:xlink="http://www.w3.org/1999/xlink" x="0px" y="0px"
	 viewBox="0 0 31.55 31.555" enable-background="new 0 0 31.55 31.555" xml:space="preserve">
<g>
	<path fill="#895241" d="M25.245,0.004H6.304c-3.481,0-6.3,2.819-6.3,6.3v3.406h10.282c1.452-1.313,3.385-2.114,5.488-2.114
		c2.103,0,4.036,0.801,5.488,2.114h10.282V6.303C31.545,2.822,28.726,0.004,25.245,0.004z M28.982,7.125c0,0.609-0.491,1.1-1.1,1.1
		h-3.961c-0.609,0-1.1-0.491-1.1-1.1V3.164c0-0.609,0.491-1.1,1.1-1.1h3.961c0.609,0,1.1,0.491,1.1,1.1V7.125z"/>
	<path fill="none" stroke="#010101" stroke-miterlimit="10" d="M22.821,7.125V3.164c0-0.609,0.491-1.1,1.1-1.1h3.961
		c0.609,0,1.1,0.491,1.1,1.1v3.961c0,0.609-0.491,1.1-1.1,1.1h-3.961C23.313,8.225,22.821,7.734,22.821,7.125z"/>
	<path fill="#D6C5B7" d="M31.545,9.709v15.535c0,3.481-2.819,6.31-6.3,6.31H6.304c-3.481,0-6.3-2.829-6.3-6.31V9.709h10.282
		c-1.655,1.495-2.691,3.662-2.691,6.065c0,4.516,3.662,8.179,8.179,8.179c4.516,0,8.179-3.662,8.179-8.179
		c0-2.402-1.036-4.57-2.691-6.065H31.545z"/>
	<path fill="none" stroke="#010101" stroke-miterlimit="10" d="M23.953,15.774c0,4.516-3.662,8.179-8.179,8.179
		c-4.517,0-8.179-3.662-8.179-8.179c0-2.402,1.036-4.57,2.691-6.065c1.452-1.313,3.385-2.114,5.488-2.114
		c2.103,0,4.036,0.801,5.488,2.114C22.917,11.204,23.953,13.371,23.953,15.774z"/>
	<line fill="none" stroke="#010101" stroke-miterlimit="10" x1="21.262" y1="9.709" x2="10.286" y2="9.709"/>
	<path fill="#010101" d="M28.982,3.164v3.961c0,0.609-0.491,1.1-1.1,1.1h-3.961c-0.609,0-1.1-0.491-1.1-1.1V3.164
		c0-0.609,0.491-1.1,1.1-1.1h3.961C28.491,2.064,28.982,2.555,28.982,3.164z"/>
	<path fill="#010101" d="M23.953,15.774c0,4.516-3.662,8.179-8.179,8.179c-4.517,0-8.179-3.662-8.179-8.179
		c0-2.402,1.036-4.57,2.691-6.065c1.452-1.313,3.385-2.114,5.488-2.114c2.103,0,4.036,0.801,5.488,2.114
		C22.917,11.204,23.953,13.371,23.953,15.774z"/>
	<g>
		<defs>
			<path id="SVGID_1_" d="M25.248,31.55H6.301C2.821,31.55,0,28.728,0,25.248V6.301C0,2.821,2.821,0,6.301,0h18.947
				c3.48,0,6.301,2.821,6.301,6.301v18.947C31.55,28.728,28.728,31.55,25.248,31.55z"/>
		</defs>
		<clipPath id="SVGID_2_">
			<use xlink:href="#SVGID_1_"  overflow="visible"/>
		</clipPath>
		<rect x="6.981" y="0" clip-path="url(#SVGID_2_)" fill="#6394CE" width="1.535" height="9.713"/>
		<rect x="5.446" y="0" clip-path="url(#SVGID_2_)" fill="#7CC89A" width="1.535" height="9.713"/>
		<rect x="3.911" y="0" clip-path="url(#SVGID_2_)" fill="#FCD140" width="1.535" height="9.713"/>
		<rect x="2.376" y="0" clip-path="url(#SVGID_2_)" fill="#EF3A58" width="1.535" height="9.713"/>
	</g>
</g>
</svg>
