<?xml version="1.0" encoding="utf-8"?>
<!-- Generator: Adobe Illustrator 17.1.0, SVG Export Plug-In . SVG Version: 6.00 Build 0)  -->
<!DOCTYPE svg PUBLIC "-//W3C//DTD SVG 1.1//EN" "http://www.w3.org/Graphics/SVG/1.1/DTD/svg11.dtd">
<svg version="1.1" id="Layer_1" xmlns="http://www.w3.org/2000/svg" xmlns:xlink="http://www.w3.org/1999/xlink" x="0px" y="0px"
	 viewBox="0 0 32.541 32.551" enable-background="new 0 0 32.541 32.551" xml:space="preserve">
<path fill="#FFFFFF" stroke="#006666" stroke-miterlimit="10" d="M25.741,0.5H6.8c-3.481,0-6.3,2.819-6.3,6.3v3.406h10.282
	c1.452-1.313,3.385-2.114,5.488-2.114c2.103,0,4.036,0.801,5.488,2.114h10.282V6.8C32.041,3.319,29.222,0.5,25.741,0.5z
	 M29.478,7.622c0,0.609-0.491,1.1-1.1,1.1h-3.961c-0.609,0-1.1-0.491-1.1-1.1V3.66c0-0.609,0.491-1.1,1.1-1.1h3.961
	c0.609,0,1.1,0.491,1.1,1.1V7.622z"/>
<path fill="none" stroke="#010101" stroke-miterlimit="10" d="M23.317,7.622V3.66c0-0.609,0.491-1.1,1.1-1.1h3.961
	c0.609,0,1.1,0.491,1.1,1.1v3.961c0,0.609-0.491,1.1-1.1,1.1h-3.961C23.808,8.721,23.317,8.23,23.317,7.622z"/>
<line fill="none" stroke="#010101" stroke-miterlimit="10" x1="21.758" y1="10.206" x2="10.782" y2="10.206"/>
<path fill="#006666" d="M29.478,3.66v3.961c0,0.609-0.491,1.1-1.1,1.1h-3.961c-0.609,0-1.1-0.491-1.1-1.1V3.66
	c0-0.609,0.491-1.1,1.1-1.1h3.961C28.987,2.561,29.478,3.052,29.478,3.66z"/>
<g>
	<defs>
		<path id="SVGID_1_" d="M25.744,32.046H6.797c-3.48,0-6.301-2.821-6.301-6.301V6.798c0-3.48,2.821-6.301,6.301-6.301h18.947
			c3.48,0,6.301,2.821,6.301,6.301v18.947C32.045,29.225,29.224,32.046,25.744,32.046z"/>
	</defs>
	<clipPath id="SVGID_2_">
		<use xlink:href="#SVGID_1_"  overflow="visible"/>
	</clipPath>
	<rect x="7.477" y="0.496" clip-path="url(#SVGID_2_)" fill="#6394CE" width="1.535" height="9.713"/>
	<rect x="5.942" y="0.496" clip-path="url(#SVGID_2_)" fill="#7CC89A" width="1.535" height="9.713"/>
	<rect x="4.407" y="0.496" clip-path="url(#SVGID_2_)" fill="#FCD140" width="1.535" height="9.713"/>
	<rect x="2.872" y="0.496" clip-path="url(#SVGID_2_)" fill="#EF3A58" width="1.535" height="9.713"/>
</g>
<path fill="none" stroke="#006666" stroke-miterlimit="10" d="M25.741,0.5H6.8c-3.481,0-6.3,2.819-6.3,6.3v3.406h10.282
	c1.452-1.313,3.385-2.114,5.488-2.114c2.103,0,4.036,0.801,5.488,2.114h10.282V6.8C32.041,3.319,29.222,0.5,25.741,0.5z
	 M29.478,7.622c0,0.609-0.491,1.1-1.1,1.1h-3.961c-0.609,0-1.1-0.491-1.1-1.1V3.66c0-0.609,0.491-1.1,1.1-1.1h3.961
	c0.609,0,1.1,0.491,1.1,1.1V7.622z"/>
<path fill="#FFFFFF" stroke="#006666" stroke-miterlimit="10" d="M32.041,10.206v15.535c0,3.481-2.819,6.31-6.3,6.31H6.8
	c-3.481,0-6.3-2.829-6.3-6.31V10.206h10.282C9.127,11.7,8.091,13.868,8.091,16.27c0,4.516,3.662,8.179,8.179,8.179
	c4.516,0,8.179-3.662,8.179-8.179c0-2.402-1.036-4.57-2.691-6.065H32.041z"/>
<path fill="#006666" d="M24.449,16.27c0,4.516-3.662,8.179-8.179,8.179c-4.517,0-8.179-3.662-8.179-8.179
	c0-2.402,1.036-4.57,2.691-6.065c1.452-1.313,3.385-2.114,5.488-2.114c2.103,0,4.036,0.801,5.488,2.114
	C23.413,11.7,24.449,13.868,24.449,16.27z"/>
</svg>
