<?xml version="1.0" encoding="utf-8"?>
<!-- Generator: Adobe Illustrator 17.1.0, SVG Export Plug-In . SVG Version: 6.00 Build 0)  -->
<!DOCTYPE svg PUBLIC "-//W3C//DTD SVG 1.1//EN" "http://www.w3.org/Graphics/SVG/1.1/DTD/svg11.dtd">
<svg version="1.1" id="Layer_1" xmlns="http://www.w3.org/2000/svg" xmlns:xlink="http://www.w3.org/1999/xlink" x="0px" y="0px"
	 viewBox="0 706.06 612 85.941" enable-background="new 0 706.06 612 85.941" xml:space="preserve">
<path d="M113.069,722.319c0,0-2.894-3.023-11.191,2.316c-8.297,5.338-52.162,31.323-52.162,31.323s-0.435,8.957,8.876,6.432
	c7.589-2.058,3.066,7.532-6.303,8.233c-11.191,0.836-10.162,6.689-18.009,14.729c-7.847,8.04-19.617,12.22-29.072-7.975
	c-9.455-20.196-6.448-28.463,12.413-30.937c15.693-2.058,13.314-2.316,18.138-7.011s10.332-12.088,17.366-9.712
	c4.759,1.608-5.788,4.888-5.274,10.098c0.515,5.21,2.508,6.368,4.245,5.531c1.736-0.836,50.168-27.785,51.068-28.493
	c0.9-0.707-0.515-2.959,2.573-3.537c3.087-0.579,15.501-3.409,18.459-4.245c2.959-0.836,7.348,1.679,4.567,5.467
	c-1.497,2.039-3.28,2.508-4.824,1.222s-3.216,0-4.952,1.801C117.249,719.36,113.069,722.319,113.069,722.319z"/>
<circle cx="107.202" cy="711.094" r="1.077"/>
<circle cx="110.386" cy="710.502" r="1.077"/>
<circle cx="113.819" cy="709.694" r="1.077"/>
<circle cx="117.251" cy="708.954" r="1.077"/>
<circle cx="120.616" cy="708.147" r="1.077"/>
<circle cx="124.182" cy="707.137" r="1.077"/>
<rect x="107.194" y="711.641" transform="matrix(0.9836 -0.1804 0.1804 0.9836 -126.8187 31.0964)" width="0.717" height="2.262"/>
<rect x="110.396" y="710.974" transform="matrix(0.9836 -0.1804 0.1804 0.9836 -126.6458 31.6632)" width="0.717" height="2.262"/>
<rect x="113.812" y="710.253" transform="matrix(0.9836 -0.1804 0.1804 0.9836 -126.4598 32.2676)" width="0.717" height="2.262"/>
<rect x="117.254" y="709.426" transform="matrix(0.9836 -0.1804 0.1804 0.9836 -126.254 32.8749)" width="0.717" height="2.262"/>
<rect x="120.616" y="708.626" transform="matrix(0.9836 -0.1804 0.1804 0.9836 -126.0545 33.4682)" width="0.717" height="2.262"/>
<rect x="124.112" y="707.638" transform="matrix(0.9836 -0.1804 0.1804 0.9836 -125.819 34.0827)" width="0.717" height="2.262"/>
<text transform="matrix(1 0 0 1 142.6742 745.0737)" font-family="'SonsieOne-Regular'" font-size="38.1314">Guitar Shredders</text>
</svg>
