<?xml version="1.0" encoding="utf-8"?>
<!-- Generator: Adobe Illustrator 17.1.0, SVG Export Plug-In . SVG Version: 6.00 Build 0)  -->
<!DOCTYPE svg PUBLIC "-//W3C//DTD SVG 1.1//EN" "http://www.w3.org/Graphics/SVG/1.1/DTD/svg11.dtd">
<svg version="1.1" id="Layer_1" xmlns="http://www.w3.org/2000/svg" xmlns:xlink="http://www.w3.org/1999/xlink" x="0px" y="0px"
	 viewBox="0 0 309.403 205.093" enable-background="new 0 0 309.403 205.093" xml:space="preserve">
<path d="M269.836,38.801c0,0-6.907-7.214-26.708,5.526s-124.483,74.751-124.483,74.751s-1.039,21.375,21.182,15.349
	c18.112-4.912,7.318,17.976-15.042,19.647c-26.708,1.995-24.252,15.963-42.978,35.15s-46.815,29.164-69.379-19.033
	s-15.387-67.927,29.624-73.83c37.452-4.912,31.773-5.526,43.285-16.731s24.657-28.848,41.443-23.177
	c11.358,3.837-13.814,11.665-12.586,24.098c1.228,12.433,5.986,15.196,10.131,13.2c4.144-1.995,119.725-66.309,121.874-67.997
	c2.149-1.688-1.228-7.061,6.14-8.442c7.368-1.381,36.992-8.135,44.053-10.131c7.061-1.995,17.535,4.007,10.898,13.047
	c-3.572,4.865-7.828,5.986-11.512,2.916c-3.684-3.07-7.675,0-11.819,4.298C279.813,31.74,269.836,38.801,269.836,38.801z"/>
<circle cx="255.836" cy="12.01" r="2.57"/>
<circle cx="263.435" cy="10.6" r="2.57"/>
<circle cx="271.626" cy="8.673" r="2.57"/>
<circle cx="279.817" cy="6.906" r="2.57"/>
<circle cx="287.847" cy="4.979" r="2.57"/>
<circle cx="296.359" cy="2.57" r="2.57"/>
<rect x="255.819" y="13.323" transform="matrix(0.9836 -0.1804 0.1804 0.9836 1.321 46.5672)" width="1.71" height="5.397"/>
<rect x="263.461" y="11.731" transform="matrix(0.9836 -0.1804 0.1804 0.9836 1.7336 47.9196)" width="1.71" height="5.397"/>
<rect x="271.612" y="10.011" transform="matrix(0.9836 -0.1804 0.1804 0.9836 2.1775 49.3618)" width="1.71" height="5.397"/>
<rect x="279.826" y="8.037" transform="matrix(0.9836 -0.1804 0.1804 0.9836 2.6684 50.8113)" width="1.71" height="5.397"/>
<rect x="287.85" y="6.127" transform="matrix(0.9836 -0.1804 0.1804 0.9836 3.1447 52.2274)" width="1.71" height="5.397"/>
<rect x="296.192" y="3.771" transform="matrix(0.9836 -0.1804 0.1804 0.9836 3.7066 53.6937)" width="1.71" height="5.397"/>
</svg>
