<?xml version="1.0" encoding="utf-8"?>
<!-- Generator: Adobe Illustrator 17.1.0, SVG Export Plug-In . SVG Version: 6.00 Build 0)  -->
<!DOCTYPE svg PUBLIC "-//W3C//DTD SVG 1.1//EN" "http://www.w3.org/Graphics/SVG/1.1/DTD/svg11.dtd">
<svg version="1.1" id="Layer_1" xmlns="http://www.w3.org/2000/svg" xmlns:xlink="http://www.w3.org/1999/xlink" x="0px" y="0px"
	 viewBox="0 0 31.562 31.562" enable-background="new 0 0 31.562 31.562" xml:space="preserve">
<g>
	<path fill="#67C8E8" d="M25.258,31.562H6.304C2.822,31.562,0,28.74,0,25.258V6.304C0,2.822,2.822,0,6.304,0h18.954
		c3.482,0,6.304,2.822,6.304,6.304v18.954C31.562,28.74,28.74,31.562,25.258,31.562z"/>
	<path fill="#FFFFFF" d="M10.923,3.971c3.463,0,4.795,2.931,4.795,4.91h5.29c0,0,4.034,0.076,4.034,4.491s-3.844,4.872-3.844,4.872
		s3.844,0.533,3.844,4.643s-4.186,4.491-4.186,4.491h-8.335c0,0-6.013-0.152-6.013-6.013s0-13.168,0-13.168
		S6.355,3.971,10.923,3.971z"/>
	<path fill="#BCE6F4" d="M10.999,6.369c2.588,0,2.588,2.131,2.588,4.491h6.774c0,0,2.512,0,2.512,2.74s-2.512,2.385-2.512,2.385
		L13.587,16v4.273h6.774c0,0,2.512-0.101,2.512,2.461s-2.512,2.436-2.512,2.436h-6.825c0,0-4.973,0.152-4.973-5.937
		s0-10.733,0-10.733S8.664,6.369,10.999,6.369z"/>
</g>
</svg>
