<?xml version="1.0" encoding="utf-8"?>
<!-- Generator: Adobe Illustrator 17.1.0, SVG Export Plug-In . SVG Version: 6.00 Build 0)  -->
<!DOCTYPE svg PUBLIC "-//W3C//DTD SVG 1.1//EN" "http://www.w3.org/Graphics/SVG/1.1/DTD/svg11.dtd">
<svg version="1.1" id="Layer_1" xmlns="http://www.w3.org/2000/svg" xmlns:xlink="http://www.w3.org/1999/xlink" x="0px" y="0px"
	 viewBox="0 0 32.562 32.562" enable-background="new 0 0 32.562 32.562" xml:space="preserve">
<path fill="#FFFFFF" stroke="#006666" stroke-miterlimit="10" d="M25.758,32.062H6.804c-3.482,0-6.304-2.822-6.304-6.304V6.804
	C0.5,3.322,3.322,0.5,6.804,0.5h18.954c3.482,0,6.304,2.822,6.304,6.304v18.954C32.062,29.24,29.24,32.062,25.758,32.062z"/>
<path fill="#006666" d="M25.42,7.041c0,0,1.317-0.06,3.488-1.287c0,0-0.15,1.452-2.395,3.054c0,0,2.081-0.299,3.129-0.883
	c0,0-0.913,1.647-2.724,2.859c0,0,0.21,7.125-4.102,11.392S11.049,29.72,2.921,24.78c0,0,3.997,0.786,7.971-2.313
	c0,0-3.907-0.112-5.12-3.84c0,0,1.1,0.247,2.537-0.067c0,0-4.379-0.786-4.468-5.501c0,0,0.988,0.606,2.515,0.696
	c0,0-4.087-2.717-1.751-7.387c0,0,4.019,5.501,11.407,5.748c0,0-1.137-4.241,2.941-6.242C22.568,4.1,25.42,7.041,25.42,7.041z"/>
</svg>
